<svg xmlns="http://www.w3.org/2000/svg" width="1455" height="713"><defs><filter filterUnits="userSpaceOnUse" id="a" x="-5" y="-5" width="1460" height="718"><feOffset in="SourceAlpha" dy="1"/><feGaussianBlur result="blurOut" stdDeviation="1.414"/><feFlood flood-color="#2B3B5D" result="floodOut"/><feComposite operator="atop" in="floodOut" in2="blurOut"/><feComponentTransfer><feFuncA type="linear" slope=".09"/></feComponentTransfer><feMerge><feMergeNode/><feMergeNode in="SourceGraphic"/></feMerge></filter></defs><path stroke="#FFF" stroke-width="10" stroke-opacity=".05" fill="none" d="M1387.211 30.998l36.785 26.352L1382.993 76l4.218-45.002zM1403 363c18.777 0 34 15.222 34 34s-15.223 34-34 34c-18.778 0-34-15.222-34-34s15.222-34 34-34zm-62.5-112c-10.217 0-18.5-8.283-18.5-18.5s8.283-18.5 18.5-18.5 18.5 8.283 18.5 18.5-8.283 18.5-18.5 18.5zM1163 204c-29.271 0-53-23.729-53-53s23.729-53 53-53 53 23.729 53 53-23.729 53-53 53zm-.181 455.66l-97.675-52.781 94.567-58.837 3.108 111.618zM991 220a9 9 0 1 1 0-18 9 9 0 0 1 0 18zm-386.963-56.443l38.671 9.029-27.407 29.213-11.264-38.242zM622.5 612c10.217 0 18.5 8.283 18.5 18.5s-8.283 18.5-18.5 18.5-18.5-8.283-18.5-18.5 8.283-18.5 18.5-18.5zM362 667c-29.271 0-53-23.729-53-53s23.729-53 53-53 53 23.729 53 53-23.729 53-53 53zm-43.501-517.504l77.243 55.266-86.1 39.113 8.857-94.379zM262.5 363c-5.799 0-10.5-4.701-10.5-10.5s4.701-10.5 10.5-10.5 10.5 4.701 10.5 10.5-4.701 10.5-10.5 10.5zM192 299c-9.389 0-17-7.611-17-17s7.611-17 17-17 17 7.611 17 17-7.611 17-17 17zM65 114c-29.271 0-53-23.729-53-53S35.729 8 65 8s53 23.729 53 53-23.729 53-53 53zm34.5 339c8.56 0 15.5 6.939 15.5 15.5 0 8.56-6.94 15.5-15.5 15.5-8.561 0-15.5-6.94-15.5-15.5 0-8.561 6.939-15.5 15.5-15.5zm.5 222a8 8 0 1 1 0 16 8 8 0 0 1 0-16zm1283-16a8 8 0 1 1 0 16 8 8 0 0 1 0-16z" filter="url(#a)"/></svg>