<svg 
 xmlns="http://www.w3.org/2000/svg"
 xmlns:xlink="http://www.w3.org/1999/xlink"
 width="36px" height="45px">
<defs>
<linearGradient id="PSgrad_0" x1="0%" x2="86.603%" y1="50%" y2="0%">
  <stop offset="0%" stop-color="rgb(192,108,132)" stop-opacity="1" />
  <stop offset="50%" stop-color="rgb(108,91,123)" stop-opacity="1" />
  <stop offset="100%" stop-color="rgb(53,92,125)" stop-opacity="1" />
</linearGradient>

</defs>
<path fill-rule="evenodd"  fill="rgba(0,0,0,0)"
 d="M35.074,0.920 L34.816,0.920 L34.816,0.597 L34.865,0.404 C34.886,0.404 34.978,0.383 35.139,0.340 C35.203,0.340 35.289,0.426 35.397,0.597 C35.268,0.791 35.160,0.898 35.074,0.920 ZM35.284,1.757 L35.348,1.757 C35.488,1.757 35.413,2.510 35.123,4.013 C35.337,4.013 35.423,4.121 35.380,4.336 L35.364,4.400 C35.343,4.497 35.225,4.561 35.010,4.593 L34.961,4.787 C34.875,5.195 34.924,5.474 35.106,5.625 L35.090,5.689 C34.833,6.291 34.698,6.613 34.688,6.656 C34.634,7.913 34.521,8.966 34.349,9.814 L34.301,10.007 C34.118,10.856 33.710,11.780 33.076,12.779 C32.872,13.305 32.598,14.186 32.254,15.422 C32.265,16.367 32.244,16.968 32.190,17.226 L32.158,17.355 C32.093,17.677 31.760,18.129 31.159,18.709 L31.014,19.095 L30.901,20.836 L30.675,21.931 C30.632,22.136 30.563,22.350 30.466,22.576 L30.385,23.607 C30.084,24.209 29.687,25.369 29.193,27.088 C29.977,27.410 30.326,27.775 30.240,28.183 L30.144,28.634 C30.659,28.634 30.885,28.785 30.820,29.086 L30.820,29.150 C30.638,29.171 30.536,29.236 30.514,29.343 C30.493,29.472 30.761,29.537 31.320,29.537 L31.900,29.537 L32.206,29.601 L32.142,29.859 C31.465,29.945 30.804,30.138 30.160,30.439 C28.527,30.708 27.651,30.879 27.533,30.955 C27.458,30.955 27.394,31.062 27.340,31.277 L27.163,32.115 C27.248,32.706 27.265,33.135 27.211,33.404 C27.168,33.587 26.690,34.811 25.777,37.078 C25.036,37.733 24.563,38.549 24.359,39.527 C24.112,40.214 23.886,40.558 23.682,40.558 C23.553,40.558 23.548,40.279 23.666,39.720 L23.537,39.720 C23.269,40.000 22.909,40.794 22.458,42.105 C21.749,43.179 21.222,44.125 20.878,44.941 L20.685,44.941 L20.717,44.812 C20.889,43.985 21.378,42.696 22.184,40.945 C22.151,40.687 22.189,40.300 22.296,39.785 C22.511,39.183 22.640,38.775 22.683,38.560 C22.715,38.420 22.651,38.034 22.490,37.400 C22.833,36.562 23.048,35.939 23.134,35.531 C23.231,35.080 23.290,34.607 23.312,34.113 L22.941,34.371 L22.877,34.371 L22.877,34.049 C22.952,33.683 23.312,32.502 23.956,30.504 C23.731,30.461 23.564,30.439 23.457,30.439 C22.253,30.611 21.566,30.697 21.394,30.697 L21.410,30.632 C21.314,30.375 21.082,30.246 20.717,30.246 L20.653,30.246 C19.761,30.417 19.289,30.632 19.235,30.890 C18.816,31.352 18.461,31.911 18.171,32.566 C17.140,33.168 16.490,33.791 16.222,34.435 C16.146,34.790 15.856,35.133 15.352,35.466 C15.266,35.466 15.234,35.423 15.255,35.338 L15.335,34.951 L15.464,34.629 L15.207,34.629 C14.433,35.821 13.520,36.895 12.467,37.851 C12.059,38.453 11.774,38.775 11.613,38.818 L11.549,38.818 L11.549,38.496 C11.721,38.302 12.043,37.808 12.516,37.013 C13.429,36.143 13.988,35.241 14.191,34.306 C14.610,33.748 14.842,33.361 14.884,33.146 C14.831,32.673 14.793,32.437 14.772,32.437 C15.373,31.438 15.695,30.836 15.738,30.632 C15.599,30.632 15.158,30.482 14.417,30.181 L14.353,30.181 C13.150,30.396 12.516,30.654 12.451,30.955 L11.662,31.019 L10.373,31.019 C10.298,31.019 9.991,30.847 9.454,30.504 L8.177,30.504 C7.998,30.870 7.892,31.101 7.878,31.164 L7.798,31.583 C7.422,31.970 7.169,32.281 7.040,32.518 C7.126,32.754 7.153,32.942 7.121,33.082 C6.294,35.155 5.719,36.192 5.397,36.192 C4.623,36.729 4.151,37.395 3.979,38.190 C3.785,38.501 3.576,38.711 3.350,38.818 C3.254,38.818 3.232,38.582 3.286,38.109 C3.243,38.109 3.179,38.087 3.093,38.045 C3.028,38.345 2.249,39.548 0.756,41.654 C0.681,42.051 0.477,42.357 0.144,42.572 L-0.001,42.572 L0.015,42.508 C0.144,41.906 0.740,40.655 1.804,38.754 L1.868,38.464 C1.890,38.356 1.884,38.265 1.852,38.190 C2.260,37.405 2.486,36.906 2.529,36.691 C2.496,36.122 2.464,35.837 2.432,35.837 C2.937,34.752 3.254,33.925 3.383,33.356 L3.222,33.436 L2.931,33.436 L2.996,33.146 C3.316,32.456 3.748,31.349 4.281,29.859 L4.040,29.859 L4.072,29.730 C4.088,29.660 4.205,29.592 4.404,29.524 C4.980,28.371 5.327,27.520 5.445,26.975 C5.370,26.975 5.295,26.884 5.220,26.701 L5.236,26.620 C5.300,26.330 5.644,25.482 6.267,24.074 C6.084,24.074 6.014,23.956 6.057,23.720 L6.090,23.575 C6.541,22.608 6.831,21.808 6.960,21.174 L7.056,20.739 C7.153,20.266 7.207,19.794 7.218,19.321 C7.497,18.719 8.023,17.892 8.797,16.840 C8.926,16.700 9.092,16.372 9.296,15.857 C9.264,15.567 9.226,15.422 9.183,15.422 C9.237,15.379 9.345,15.073 9.506,14.503 L9.409,14.004 C9.452,13.810 9.720,13.220 10.215,12.231 C10.301,11.834 10.333,11.458 10.311,11.103 C10.365,10.813 10.805,10.410 11.633,9.895 C11.675,9.744 12.374,9.132 13.727,8.058 L14.356,8.058 L14.839,8.122 C15.065,7.693 15.301,7.478 15.548,7.478 C15.634,7.714 15.666,7.881 15.645,7.977 L15.725,7.977 C16.058,7.032 16.348,6.559 16.596,6.559 C16.703,6.559 16.794,6.468 16.869,6.285 C16.955,6.232 17.052,6.205 17.160,6.205 L17.224,6.205 C17.181,6.452 17.031,6.952 16.773,7.703 C16.741,7.832 16.805,8.090 16.966,8.477 C16.773,9.164 16.665,9.540 16.644,9.605 C16.654,10.228 16.391,11.931 15.854,14.713 C15.371,15.712 14.538,17.060 13.357,18.757 C13.217,18.961 12.927,19.885 12.487,21.528 C11.885,21.894 11.536,22.318 11.439,22.801 C11.396,23.210 11.369,23.446 11.359,23.510 C10.875,24.445 10.505,25.412 10.247,26.411 C9.719,27.297 9.314,28.021 9.025,28.594 C9.439,28.435 9.691,28.296 9.744,28.183 C9.776,28.044 10.448,27.915 11.758,27.797 L12.000,27.603 L11.919,27.410 L11.952,27.216 C14.498,27.002 16.254,26.830 17.221,26.701 C17.597,26.518 18.021,25.938 18.494,24.961 C19.160,24.058 19.509,23.521 19.541,23.349 C19.584,23.178 19.600,22.898 19.589,22.511 C20.309,21.298 21.582,19.364 23.408,16.711 C23.623,16.442 23.951,15.712 24.391,14.519 C24.670,14.347 24.987,13.853 25.342,13.037 C25.771,12.693 26.255,11.834 26.792,10.459 C27.114,10.115 27.646,9.728 28.387,9.299 C28.462,9.062 28.795,8.826 29.386,8.590 C29.483,8.138 29.918,7.515 30.691,6.720 C31.475,5.131 32.050,4.336 32.416,4.336 C32.716,4.422 32.899,4.465 32.963,4.465 C33.286,4.357 33.533,3.906 33.705,3.111 L33.979,3.047 C34.064,3.229 34.097,3.573 34.075,4.078 C34.247,4.078 34.575,3.347 35.058,1.886 L35.284,1.757 ZM23.247,33.791 L23.118,33.791 L23.118,33.855 L23.247,33.855 L23.247,33.791 ZM15.513,35.015 L15.497,35.144 L15.561,35.144 L15.577,35.015 L15.513,35.015 ZM12.177,27.410 L12.161,27.474 L12.290,27.474 L12.306,27.410 L12.177,27.410 ZM26.711,18.773 C25.648,20.911 24.950,22.264 24.617,22.834 C24.251,23.113 23.639,23.972 22.780,25.412 C22.490,25.723 22.259,26.003 22.087,26.250 L22.345,26.250 C22.753,26.067 23.618,25.938 24.939,25.863 L24.939,25.541 L25.165,24.509 C25.336,23.693 25.718,22.490 26.309,20.900 L26.744,18.902 L26.840,18.773 L26.711,18.773 ZM33.608,11.168 L33.543,11.425 L33.608,11.425 C33.683,11.275 33.726,11.189 33.737,11.168 L33.608,11.168 ZM33.221,2.660 L32.706,2.660 C32.501,2.424 32.410,2.252 32.432,2.144 C32.539,1.801 32.748,1.629 33.060,1.629 C33.361,1.629 33.479,1.779 33.415,2.080 L33.350,2.338 L33.221,2.660 ZM16.869,5.222 L16.660,5.222 L16.660,4.932 C16.767,4.738 16.853,4.642 16.918,4.642 L17.272,4.642 L17.272,4.996 L17.240,5.141 L16.869,5.222 ZM14.372,6.994 C14.275,6.994 14.152,6.801 14.001,6.414 C14.162,6.038 14.297,5.850 14.404,5.850 L15.033,5.850 L15.081,6.350 L15.016,6.640 C14.844,6.876 14.630,6.994 14.372,6.994 ZM31.304,28.054 L31.336,27.603 L31.352,27.539 C31.556,27.367 31.669,27.238 31.690,27.152 L32.271,27.152 C32.292,27.431 32.292,27.625 32.271,27.732 L32.238,27.925 C31.937,28.012 31.733,28.054 31.626,28.054 L31.304,28.054 ZM33.543,28.763 L33.527,29.086 L33.495,29.279 L33.108,29.279 C33.022,29.279 32.990,29.215 33.012,29.086 L33.157,28.763 L33.543,28.763 Z"/>
<path fill="url(#PSgrad_0)"
 d="M35.074,0.920 L34.816,0.920 L34.816,0.597 L34.865,0.404 C34.886,0.404 34.978,0.383 35.139,0.340 C35.203,0.340 35.289,0.426 35.397,0.597 C35.268,0.791 35.160,0.898 35.074,0.920 ZM35.284,1.757 L35.348,1.757 C35.488,1.757 35.413,2.510 35.123,4.013 C35.337,4.013 35.423,4.121 35.380,4.336 L35.364,4.400 C35.343,4.497 35.225,4.561 35.010,4.593 L34.961,4.787 C34.875,5.195 34.924,5.474 35.106,5.625 L35.090,5.689 C34.833,6.291 34.698,6.613 34.688,6.656 C34.634,7.913 34.521,8.966 34.349,9.814 L34.301,10.007 C34.118,10.856 33.710,11.780 33.076,12.779 C32.872,13.305 32.598,14.186 32.254,15.422 C32.265,16.367 32.244,16.968 32.190,17.226 L32.158,17.355 C32.093,17.677 31.760,18.129 31.159,18.709 L31.014,19.095 L30.901,20.836 L30.675,21.931 C30.632,22.136 30.563,22.350 30.466,22.576 L30.385,23.607 C30.084,24.209 29.687,25.369 29.193,27.088 C29.977,27.410 30.326,27.775 30.240,28.183 L30.144,28.634 C30.659,28.634 30.885,28.785 30.820,29.086 L30.820,29.150 C30.638,29.171 30.536,29.236 30.514,29.343 C30.493,29.472 30.761,29.537 31.320,29.537 L31.900,29.537 L32.206,29.601 L32.142,29.859 C31.465,29.945 30.804,30.138 30.160,30.439 C28.527,30.708 27.651,30.879 27.533,30.955 C27.458,30.955 27.394,31.062 27.340,31.277 L27.163,32.115 C27.248,32.706 27.265,33.135 27.211,33.404 C27.168,33.587 26.690,34.811 25.777,37.078 C25.036,37.733 24.563,38.549 24.359,39.527 C24.112,40.214 23.886,40.558 23.682,40.558 C23.553,40.558 23.548,40.279 23.666,39.720 L23.537,39.720 C23.269,40.000 22.909,40.794 22.458,42.105 C21.749,43.179 21.222,44.125 20.878,44.941 L20.685,44.941 L20.717,44.812 C20.889,43.985 21.378,42.696 22.184,40.945 C22.151,40.687 22.189,40.300 22.296,39.785 C22.511,39.183 22.640,38.775 22.683,38.560 C22.715,38.420 22.651,38.034 22.490,37.400 C22.833,36.562 23.048,35.939 23.134,35.531 C23.231,35.080 23.290,34.607 23.312,34.113 L22.941,34.371 L22.877,34.371 L22.877,34.049 C22.952,33.683 23.312,32.502 23.956,30.504 C23.731,30.461 23.564,30.439 23.457,30.439 C22.253,30.611 21.566,30.697 21.394,30.697 L21.410,30.632 C21.314,30.375 21.082,30.246 20.717,30.246 L20.653,30.246 C19.761,30.417 19.289,30.632 19.235,30.890 C18.816,31.352 18.461,31.911 18.171,32.566 C17.140,33.168 16.490,33.791 16.222,34.435 C16.146,34.790 15.856,35.133 15.352,35.466 C15.266,35.466 15.234,35.423 15.255,35.338 L15.335,34.951 L15.464,34.629 L15.207,34.629 C14.433,35.821 13.520,36.895 12.467,37.851 C12.059,38.453 11.774,38.775 11.613,38.818 L11.549,38.818 L11.549,38.496 C11.721,38.302 12.043,37.808 12.516,37.013 C13.429,36.143 13.988,35.241 14.191,34.306 C14.610,33.748 14.842,33.361 14.884,33.146 C14.831,32.673 14.793,32.437 14.772,32.437 C15.373,31.438 15.695,30.836 15.738,30.632 C15.599,30.632 15.158,30.482 14.417,30.181 L14.353,30.181 C13.150,30.396 12.516,30.654 12.451,30.955 L11.662,31.019 L10.373,31.019 C10.298,31.019 9.991,30.847 9.454,30.504 L8.177,30.504 C7.998,30.870 7.892,31.101 7.878,31.164 L7.798,31.583 C7.422,31.970 7.169,32.281 7.040,32.518 C7.126,32.754 7.153,32.942 7.121,33.082 C6.294,35.155 5.719,36.192 5.397,36.192 C4.623,36.729 4.151,37.395 3.979,38.190 C3.785,38.501 3.576,38.711 3.350,38.818 C3.254,38.818 3.232,38.582 3.286,38.109 C3.243,38.109 3.179,38.087 3.093,38.045 C3.028,38.345 2.249,39.548 0.756,41.654 C0.681,42.051 0.477,42.357 0.144,42.572 L-0.001,42.572 L0.015,42.508 C0.144,41.906 0.740,40.655 1.804,38.754 L1.868,38.464 C1.890,38.356 1.884,38.265 1.852,38.190 C2.260,37.405 2.486,36.906 2.529,36.691 C2.496,36.122 2.464,35.837 2.432,35.837 C2.937,34.752 3.254,33.925 3.383,33.356 L3.222,33.436 L2.931,33.436 L2.996,33.146 C3.316,32.456 3.748,31.349 4.281,29.859 L4.040,29.859 L4.072,29.730 C4.088,29.660 4.205,29.592 4.404,29.524 C4.980,28.371 5.327,27.520 5.445,26.975 C5.370,26.975 5.295,26.884 5.220,26.701 L5.236,26.620 C5.300,26.330 5.644,25.482 6.267,24.074 C6.084,24.074 6.014,23.956 6.057,23.720 L6.090,23.575 C6.541,22.608 6.831,21.808 6.960,21.174 L7.056,20.739 C7.153,20.266 7.207,19.794 7.218,19.321 C7.497,18.719 8.023,17.892 8.797,16.840 C8.926,16.700 9.092,16.372 9.296,15.857 C9.264,15.567 9.226,15.422 9.183,15.422 C9.237,15.379 9.345,15.073 9.506,14.503 L9.409,14.004 C9.452,13.810 9.720,13.220 10.215,12.231 C10.301,11.834 10.333,11.458 10.311,11.103 C10.365,10.813 10.805,10.410 11.633,9.895 C11.675,9.744 12.374,9.132 13.727,8.058 L14.356,8.058 L14.839,8.122 C15.065,7.693 15.301,7.478 15.548,7.478 C15.634,7.714 15.666,7.881 15.645,7.977 L15.725,7.977 C16.058,7.032 16.348,6.559 16.596,6.559 C16.703,6.559 16.794,6.468 16.869,6.285 C16.955,6.232 17.052,6.205 17.160,6.205 L17.224,6.205 C17.181,6.452 17.031,6.952 16.773,7.703 C16.741,7.832 16.805,8.090 16.966,8.477 C16.773,9.164 16.665,9.540 16.644,9.605 C16.654,10.228 16.391,11.931 15.854,14.713 C15.371,15.712 14.538,17.060 13.357,18.757 C13.217,18.961 12.927,19.885 12.487,21.528 C11.885,21.894 11.536,22.318 11.439,22.801 C11.396,23.210 11.369,23.446 11.359,23.510 C10.875,24.445 10.505,25.412 10.247,26.411 C9.719,27.297 9.314,28.021 9.025,28.594 C9.439,28.435 9.691,28.296 9.744,28.183 C9.776,28.044 10.448,27.915 11.758,27.797 L12.000,27.603 L11.919,27.410 L11.952,27.216 C14.498,27.002 16.254,26.830 17.221,26.701 C17.597,26.518 18.021,25.938 18.494,24.961 C19.160,24.058 19.509,23.521 19.541,23.349 C19.584,23.178 19.600,22.898 19.589,22.511 C20.309,21.298 21.582,19.364 23.408,16.711 C23.623,16.442 23.951,15.712 24.391,14.519 C24.670,14.347 24.987,13.853 25.342,13.037 C25.771,12.693 26.255,11.834 26.792,10.459 C27.114,10.115 27.646,9.728 28.387,9.299 C28.462,9.062 28.795,8.826 29.386,8.590 C29.483,8.138 29.918,7.515 30.691,6.720 C31.475,5.131 32.050,4.336 32.416,4.336 C32.716,4.422 32.899,4.465 32.963,4.465 C33.286,4.357 33.533,3.906 33.705,3.111 L33.979,3.047 C34.064,3.229 34.097,3.573 34.075,4.078 C34.247,4.078 34.575,3.347 35.058,1.886 L35.284,1.757 ZM23.247,33.791 L23.118,33.791 L23.118,33.855 L23.247,33.855 L23.247,33.791 ZM15.513,35.015 L15.497,35.144 L15.561,35.144 L15.577,35.015 L15.513,35.015 ZM12.177,27.410 L12.161,27.474 L12.290,27.474 L12.306,27.410 L12.177,27.410 ZM26.711,18.773 C25.648,20.911 24.950,22.264 24.617,22.834 C24.251,23.113 23.639,23.972 22.780,25.412 C22.490,25.723 22.259,26.003 22.087,26.250 L22.345,26.250 C22.753,26.067 23.618,25.938 24.939,25.863 L24.939,25.541 L25.165,24.509 C25.336,23.693 25.718,22.490 26.309,20.900 L26.744,18.902 L26.840,18.773 L26.711,18.773 ZM33.608,11.168 L33.543,11.425 L33.608,11.425 C33.683,11.275 33.726,11.189 33.737,11.168 L33.608,11.168 ZM33.221,2.660 L32.706,2.660 C32.501,2.424 32.410,2.252 32.432,2.144 C32.539,1.801 32.748,1.629 33.060,1.629 C33.361,1.629 33.479,1.779 33.415,2.080 L33.350,2.338 L33.221,2.660 ZM16.869,5.222 L16.660,5.222 L16.660,4.932 C16.767,4.738 16.853,4.642 16.918,4.642 L17.272,4.642 L17.272,4.996 L17.240,5.141 L16.869,5.222 ZM14.372,6.994 C14.275,6.994 14.152,6.801 14.001,6.414 C14.162,6.038 14.297,5.850 14.404,5.850 L15.033,5.850 L15.081,6.350 L15.016,6.640 C14.844,6.876 14.630,6.994 14.372,6.994 ZM31.304,28.054 L31.336,27.603 L31.352,27.539 C31.556,27.367 31.669,27.238 31.690,27.152 L32.271,27.152 C32.292,27.431 32.292,27.625 32.271,27.732 L32.238,27.925 C31.937,28.012 31.733,28.054 31.626,28.054 L31.304,28.054 ZM33.543,28.763 L33.527,29.086 L33.495,29.279 L33.108,29.279 C33.022,29.279 32.990,29.215 33.012,29.086 L33.157,28.763 L33.543,28.763 Z"/>
</svg>